<mxfile host="app.diagrams.net" modified="2023-07-12T18:31:41.451Z" agent="Mozilla/5.0 (Windows NT 10.0; Win64; x64) AppleWebKit/537.36 (KHTML, like Gecko) Chrome/114.0.0.0 Safari/537.36" etag="pKiBi6QtsBOifrOndf7T" version="21.6.1" type="github">
  <diagram name="Page-1" id="k9V07EJ6mutJWs-gKOBP">
    <mxGraphModel dx="880" dy="444" grid="1" gridSize="10" guides="1" tooltips="1" connect="1" arrows="1" fold="1" page="1" pageScale="1" pageWidth="850" pageHeight="1100" math="0" shadow="0">
      <root>
        <mxCell id="0" />
        <mxCell id="1" parent="0" />
        <mxCell id="San5FlRwcEpMT0a5vo_A-1" value="&#xa;  &#xa;    &#xa;      &#xa;      &#xa;      &#xa;      &#xa;        &#xa;      &#xa;      &#xa;      &#xa;        &#xa;      &#xa;      &#xa;        &#xa;      &#xa;      &#xa;        &#xa;      &#xa;      &#xa;        &#xa;      &#xa;      &#xa;        &#xa;      &#xa;      &#xa;        &#xa;      &#xa;      &#xa;        &#xa;      &#xa;      &#xa;        &#xa;      &#xa;      &#xa;        &#xa;      &#xa;      &#xa;        &#xa;      &#xa;      &#xa;        &#xa;      &#xa;      &#xa;        &#xa;      &#xa;      &#xa;        &#xa;      &#xa;      &#xa;        &#xa;      &#xa;      &#xa;        &#xa;      &#xa;      &#xa;        &#xa;      &#xa;      &#xa;        &#xa;      &#xa;      &#xa;        &#xa;      &#xa;      &#xa;        &#xa;      &#xa;      &#xa;        &#xa;      &#xa;      &#xa;        &#xa;      &#xa;      &#xa;        &#xa;      &#xa;      &#xa;        &#xa;      &#xa;      &#xa;        &#xa;      &#xa;      &#xa;        &#xa;      &#xa;      &#xa;        &#xa;      &#xa;      &#xa;        &#xa;      &#xa;      &#xa;        &#xa;      &#xa;      &#xa;        &#xa;      &#xa;      &#xa;        &#xa;      &#xa;      &#xa;        &#xa;      &#xa;      &#xa;        &#xa;      &#xa;      &#xa;        &#xa;      &#xa;      &#xa;        &#xa;      &#xa;      &#xa;        &#xa;      &#xa;      &#xa;        &#xa;      &#xa;      &#xa;        &#xa;      &#xa;      &#xa;        &#xa;      &#xa;      &#xa;        &#xa;      &#xa;      &#xa;        &#xa;      &#xa;      &#xa;        &#xa;      &#xa;      &#xa;        &#xa;      &#xa;      &#xa;        &#xa;      &#xa;      &#xa;        &#xa;      &#xa;      &#xa;        &#xa;      &#xa;      &#xa;        &#xa;      &#xa;      &#xa;        &#xa;      &#xa;      &#xa;        &#xa;      &#xa;      &#xa;        &#xa;      &#xa;      &#xa;        &#xa;      &#xa;      &#xa;        &#xa;      &#xa;      &#xa;        &#xa;      &#xa;      &#xa;        &#xa;      &#xa;      &#xa;        &#xa;      &#xa;      &#xa;        &#xa;      &#xa;      &#xa;        &#xa;      &#xa;    &#xa;  &#xa;" style="text;whiteSpace=wrap;html=1;" vertex="1" parent="1">
          <mxGeometry width="30" height="2610" as="geometry" />
        </mxCell>
      </root>
    </mxGraphModel>
  </diagram>
</mxfile>
